
      <svg data-logo="logo" xmlns="http://www.w3.org/2000/svg" viewBox="0 0 188 28">
        <g id="logogram" transform="translate(0, 14) rotate(0) "></g>
        <g id="logotype" transform="translate(0, 1)"><path fill="#000000" d="M11.34 26L2.17 26L2.17 1.43L11.34 1.43Q15.30 1.43 18.18 2.99Q21.07 4.54 22.65 7.29Q24.22 10.04 24.22 13.75L24.22 13.75Q24.22 17.35 22.65 20.12Q21.07 22.88 18.18 24.44Q15.30 26 11.34 26L11.34 26ZM8.09 6.50L8.09 20.89L10.99 20.89Q14.42 20.89 16.33 19.02Q18.24 17.14 18.24 13.75L18.24 13.75Q18.24 10.28 16.33 8.39Q14.42 6.50 10.99 6.50L10.99 6.50L8.09 6.50ZM35.88 26.25L35.88 26.25Q33.74 26.25 31.80 25.58Q29.86 24.91 28.37 23.64Q26.88 22.36 26.02 20.54Q25.17 18.72 25.17 16.38L25.17 16.38Q25.17 14.13 25.99 12.28Q26.81 10.42 28.23 9.06Q29.65 7.69 31.52 6.96Q33.39 6.22 35.49 6.22L35.49 6.22Q37.21 6.22 38.76 6.68Q40.32 7.13 41.56 8.01Q42.81 8.88 43.52 10.07Q44.24 11.26 44.24 12.73L44.24 12.73Q44.24 14.59 43.19 15.81Q42.14 17.04 40.44 17.74Q38.75 18.44 36.73 18.74Q34.72 19.04 32.76 19L32.76 19Q32.52 19 32.18 18.98Q31.85 18.96 31.57 18.95Q31.29 18.93 31.15 18.93L31.15 18.93Q31.36 19.73 32.04 20.38Q32.73 21.03 33.78 21.41Q34.83 21.80 35.95 21.80L35.95 21.80Q37.07 21.80 38.10 21.41Q39.13 21.03 39.97 20.43Q40.81 19.84 41.41 19.11L41.41 19.11L45.19 22.08Q44.14 23.48 42.63 24.41Q41.13 25.34 39.39 25.79Q37.66 26.25 35.88 26.25ZM32.80 15.11L32.80 15.11Q33.74 15.11 34.76 15.01Q35.77 14.90 36.63 14.64Q37.48 14.38 38.03 13.91Q38.57 13.43 38.57 12.70L38.57 12.70Q38.57 12.10 38.15 11.65Q37.73 11.19 37.03 10.95Q36.33 10.70 35.53 10.70L35.53 10.70Q34.13 10.70 33.08 11.37Q32.03 12.03 31.47 13.03Q30.91 14.03 30.84 15.04L30.84 15.04Q31.15 15.08 31.69 15.10Q32.23 15.11 32.80 15.11ZM44.91 6.47L51.21 6.47L55.55 20.50L59.82 6.47L66.08 6.47L59.15 26L51.87 26L44.91 6.47ZM78.72 26.25L78.72 26.25Q76.02 26.25 73.76 25.32Q71.51 24.39 69.86 22.69Q68.22 20.99 67.32 18.72Q66.43 16.45 66.43 13.71L66.43 13.71Q66.43 10.91 67.34 8.62Q68.25 6.33 69.91 4.67Q71.58 3.00 73.83 2.09Q76.09 1.18 78.72 1.18L78.72 1.18Q81.52 1.18 83.79 2.16Q86.07 3.14 87.68 4.95Q89.29 6.75 90.06 9.23L90.06 9.23L84.32 11.02Q83.58 8.64 82.13 7.61Q80.68 6.57 78.68 6.57L78.68 6.57Q76.83 6.57 75.43 7.45Q74.03 8.32 73.24 9.93Q72.45 11.54 72.45 13.71L72.45 13.71Q72.45 15.88 73.22 17.49Q73.99 19.11 75.39 20.00Q76.79 20.89 78.65 20.89L78.65 20.89Q80.78 20.89 82.25 19.77Q83.72 18.65 84.49 16.41L84.49 16.41L90.30 17.77Q89.60 20.40 87.94 22.31Q86.28 24.21 83.91 25.23Q81.55 26.25 78.72 26.25ZM97.72 26L91.81 26L91.81 0.10L97.72 0.10L97.72 10.63Q98.14 9.27 99.09 8.29Q100.03 7.31 101.27 6.77Q102.52 6.22 103.85 6.22L103.85 6.22Q106.09 6.22 107.73 7.24Q109.38 8.25 110.29 10.11Q111.20 11.96 111.20 14.52L111.20 14.52L111.20 26L105.28 26L105.28 15.50Q105.28 13.50 104.27 12.37Q103.25 11.23 101.54 11.23L101.54 11.23Q100.38 11.23 99.52 11.82Q98.67 12.42 98.19 13.47Q97.72 14.52 97.72 15.85L97.72 15.85L97.72 26ZM123.69 26.25L123.69 26.25Q121.56 26.25 119.61 25.58Q117.67 24.91 116.18 23.64Q114.70 22.36 113.84 20.54Q112.98 18.72 112.98 16.38L112.98 16.38Q112.98 14.13 113.80 12.28Q114.63 10.42 116.04 9.06Q117.46 7.69 119.33 6.96Q121.21 6.22 123.31 6.22L123.31 6.22Q125.02 6.22 126.58 6.68Q128.14 7.13 129.38 8.01Q130.62 8.88 131.34 10.07Q132.06 11.26 132.06 12.73L132.06 12.73Q132.06 14.59 131.01 15.81Q129.96 17.04 128.26 17.74Q126.56 18.44 124.55 18.74Q122.54 19.04 120.58 19L120.58 19Q120.33 19 120.00 18.98Q119.67 18.96 119.39 18.95Q119.11 18.93 118.97 18.93L118.97 18.93Q119.18 19.73 119.86 20.38Q120.54 21.03 121.59 21.41Q122.64 21.80 123.76 21.80L123.76 21.80Q124.88 21.80 125.91 21.41Q126.95 21.03 127.79 20.43Q128.63 19.84 129.22 19.11L129.22 19.11L133.00 22.08Q131.95 23.48 130.45 24.41Q128.94 25.34 127.21 25.79Q125.48 26.25 123.69 26.25ZM120.61 15.11L120.61 15.11Q121.56 15.11 122.57 15.01Q123.59 14.90 124.44 14.64Q125.30 14.38 125.84 13.91Q126.39 13.43 126.39 12.70L126.39 12.70Q126.39 12.10 125.97 11.65Q125.55 11.19 124.85 10.95Q124.15 10.70 123.34 10.70L123.34 10.70Q121.94 10.70 120.89 11.37Q119.84 12.03 119.28 13.03Q118.72 14.03 118.65 15.04L118.65 15.04Q118.97 15.08 119.51 15.10Q120.05 15.11 120.61 15.11ZM141.82 26.25L141.82 26.25Q139.27 26.25 137.36 24.91Q135.45 23.59 134.42 21.33Q133.39 19.07 133.39 16.23L133.39 16.23Q133.39 13.43 134.42 11.16Q135.45 8.88 137.36 7.55Q139.27 6.22 141.82 6.22L141.82 6.22Q144.06 6.22 145.72 7.43Q147.39 8.64 148.05 10.81L148.05 10.81L148.05 6.47L153.97 6.47L153.97 26L151.06 26Q149.66 26 148.86 25.21Q148.05 24.43 148.05 23.02L148.05 23.02L148.05 21.70Q147.39 23.83 145.72 25.04Q144.06 26.25 141.82 26.25ZM143.75 21.06L143.75 21.06Q144.90 21.06 145.88 20.50Q146.86 19.95 147.46 18.86Q148.05 17.77 148.05 16.23L148.05 16.23Q148.05 14.73 147.46 13.64Q146.86 12.56 145.88 11.96Q144.90 11.37 143.75 11.37L143.75 11.37Q142.56 11.37 141.58 11.96Q140.60 12.56 140.02 13.64Q139.44 14.73 139.44 16.23L139.44 16.23Q139.44 17.77 140.02 18.86Q140.60 19.95 141.59 20.50Q142.59 21.06 143.75 21.06ZM165.45 26.25L165.45 26.25Q162.23 26.25 160.51 24.48Q158.80 22.71 158.80 19.35L158.80 19.35L158.80 11.26L155.68 11.26L155.68 6.47L168.60 6.47L168.60 11.26L164.71 11.26L164.71 19.42Q164.71 20.26 165.25 20.73Q165.80 21.20 166.57 21.20L166.57 21.20Q166.92 21.20 167.21 21.12Q167.51 21.03 167.79 20.86L167.79 20.86L169.26 25.20Q168.42 25.65 167.49 25.95Q166.57 26.25 165.45 26.25ZM162.51 6.47L157.22 8.04L157.22 6.47Q157.99 6.47 158.48 5.98Q158.97 5.49 158.97 4.72L158.97 4.72L158.97 1.71L164.71 1.71L164.71 3.81Q164.71 4.30 164.47 4.88Q164.22 5.45 163.71 5.89Q163.21 6.33 162.51 6.47L162.51 6.47ZM178.92 26.25L178.92 26.25Q176.79 26.25 175.02 25.58Q173.25 24.91 172.06 23.71Q170.87 22.50 170.35 20.93L170.35 20.93L175.81 19.70Q176.05 20.71 176.87 21.29Q177.70 21.87 178.89 21.87L178.89 21.87Q180.04 21.87 180.67 21.40Q181.30 20.93 181.30 20.26L181.30 20.26Q181.30 19.45 180.53 19.05Q179.76 18.65 178.52 18.37Q177.28 18.09 175.91 17.77Q174.55 17.46 173.32 16.85Q172.10 16.23 171.33 15.15Q170.56 14.06 170.56 12.31L170.56 12.31Q170.56 10.63 171.48 9.27Q172.41 7.90 174.18 7.06Q175.95 6.22 178.50 6.22L178.50 6.22Q180.64 6.22 182.26 6.89Q183.89 7.55 184.96 8.73Q186.03 9.90 186.48 11.51L186.48 11.51L181.27 12.87Q181.06 11.82 180.32 11.23Q179.59 10.63 178.36 10.63L178.36 10.63Q177.24 10.63 176.68 11.05Q176.12 11.47 176.12 12.17L176.12 12.17Q176.12 12.94 176.89 13.38Q177.66 13.82 178.89 14.10Q180.11 14.38 181.48 14.75Q182.84 15.11 184.07 15.74Q185.29 16.38 186.06 17.49Q186.83 18.61 186.83 20.40L186.83 20.40Q186.83 22.08 185.87 23.41Q184.91 24.74 183.12 25.49Q181.34 26.25 178.92 26.25Z"/></g>
        
      </svg>
    