
      <svg data-logo="logo" xmlns="http://www.w3.org/2000/svg" viewBox="0 0 120 25">
        <g id="logogram" transform="translate(0, 12.5) rotate(0) "></g>
        <g id="logotype" transform="translate(0, 1)"><path fill="#000000" d="M4.45 23L0.98 23L0.98 0.28L7.11 0.28Q10.54 0.28 11.88 1.68Q13.23 3.08 13.23 6.16L13.23 6.16L13.23 16.63Q13.23 18.84 12.55 20.11Q11.87 21.39 10.64 22.00Q9.42 22.61 7.82 22.81Q6.23 23 4.45 23L4.45 23ZM4.90 3.96L4.90 19.29Q6.51 19.29 7.49 19.15Q8.47 19.01 8.91 18.41Q9.35 17.82 9.35 16.49L9.35 16.49L9.35 6.51Q9.35 5.22 8.94 4.69Q8.54 4.17 7.74 4.06Q6.93 3.96 5.64 3.96L5.64 3.96L4.90 3.96ZM26.29 23L15.23 23L15.23 0.28L26.29 0.28L26.29 3.96L19.15 3.96L19.15 9.24L24.19 9.24L24.19 12.95L19.15 12.95L19.15 19.29L26.29 19.29L26.29 23ZM35.11 23L32.62 23Q30.42 20.23 29.38 17.36Q28.35 14.49 28.05 11.48Q27.76 8.47 27.76 5.36L27.76 5.36L27.76 0.32L31.64 0.32L31.64 1.61L31.61 2.94L31.61 4.20L31.57 5.46Q31.57 8.65 31.94 11.83Q32.31 15.02 33.88 17.93L33.88 17.93Q35.35 14.88 35.75 11.76Q36.16 8.65 36.16 5.39L36.16 5.39L36.16 4.17L36.12 2.98L36.12 1.65L36.09 0.32L40.01 0.32L40.01 5.36Q40.01 8.40 39.71 11.41Q39.41 14.42 38.38 17.33Q37.35 20.23 35.11 23L35.11 23ZM47.78 23L47.78 23Q44.38 23 43.02 21.69Q41.65 20.38 41.65 17.23L41.65 17.23L41.65 6.06Q41.65 2.98 43.00 1.63Q44.35 0.28 47.78 0.28L47.78 0.28Q51.17 0.28 52.54 1.65Q53.90 3.01 53.90 6.23L53.90 6.23L50.02 6.23Q50.02 5.18 49.93 4.71Q49.84 4.24 49.39 4.12Q48.93 3.99 47.78 3.99L47.78 3.99Q46.69 3.99 46.22 4.08Q45.75 4.17 45.66 4.61Q45.57 5.04 45.57 6.06L45.57 6.06L45.57 17.99Q45.64 18.59 46.41 18.87Q47.18 19.15 48.06 19.15L48.06 19.15Q49.21 19.15 49.65 18.89Q50.09 18.63 50.09 17.43L50.09 17.43Q50.09 17.16 50.07 16.82Q50.05 16.49 50.02 15.93L50.02 15.93L53.90 15.93Q53.90 17.61 53.74 18.94Q53.59 20.27 52.99 21.16Q52.40 22.05 51.17 22.53Q49.95 23 47.78 23ZM59.82 23L55.90 23L55.90 0.28L59.82 0.28L59.82 9.21L64.26 9.21L64.26 0.28L68.11 0.28L68.11 23L64.26 23L64.26 12.95L59.82 12.95L59.82 23ZM81.45 23L70.39 23L70.39 0.28L81.45 0.28L81.45 3.96L74.31 3.96L74.31 9.24L79.34 9.24L79.34 12.95L74.31 12.95L74.31 19.29L81.45 19.29L81.45 23ZM86.77 23L82.88 23L82.88 18.13Q82.88 14.88 83.18 11.89Q83.48 8.89 84.51 6.02Q85.54 3.15 87.71 0.28L87.71 0.28L90.23 0.28Q92.44 3.12 93.49 6.04Q94.54 8.96 94.83 11.97Q95.13 14.98 95.13 18.13L95.13 18.13L95.13 23L91.21 23L91.21 18.52L86.77 18.52L86.77 23ZM86.77 14.84L86.77 14.84L91.18 14.84Q91.04 12.39 90.51 9.94Q89.99 7.49 88.97 5.36L88.97 5.36Q87.92 7.56 87.40 9.98Q86.87 12.39 86.77 14.84ZM102.62 23L98.74 23L98.74 3.96L95.10 3.96L95.10 0.28L106.26 0.28L106.26 3.96L102.62 3.96L102.62 23ZM112.95 23L112.95 23Q110.81 23 109.57 22.53Q108.33 22.05 107.73 21.16Q107.14 20.27 106.98 18.94Q106.82 17.61 106.82 15.93L106.82 15.93L110.71 15.93L110.71 16.59L110.67 17.23L110.67 17.79Q110.67 18.66 110.99 18.98Q111.30 19.29 112.67 19.29L112.67 19.29L113.26 19.29Q114.14 19.22 114.54 19.13Q114.94 19.04 115.05 18.71Q115.15 18.38 115.15 17.61L115.15 17.61L115.15 17.23L115.19 16.77L115.19 16.28L115.22 15.37Q115.22 15.13 115.20 14.63Q115.19 14.14 115.05 13.44L115.05 13.44Q114.91 13.13 114.26 13.04Q113.61 12.95 113.09 12.95L113.09 12.95L112.95 12.95Q110.81 12.95 109.57 12.50Q108.33 12.04 107.73 11.17Q107.14 10.29 106.98 9.02Q106.82 7.74 106.82 6.06L106.82 6.06Q106.82 2.94 108.19 1.63Q109.55 0.32 112.95 0.32L112.95 0.32Q116.38 0.32 117.72 1.70Q119.07 3.08 119.07 6.23L119.07 6.23L115.15 6.23Q115.15 5.11 115.05 4.64Q114.94 4.17 114.47 4.08Q114.00 3.99 112.95 3.99L112.95 3.99Q111.90 3.99 111.42 4.10Q110.95 4.20 110.83 4.64Q110.71 5.08 110.71 6.06L110.71 6.06L110.71 6.62L110.67 7.42Q110.67 7.60 110.69 8.00Q110.71 8.40 110.88 8.89L110.88 8.89Q110.92 9.00 111.46 9.12Q112.00 9.24 112.95 9.24L112.95 9.24Q115.26 9.24 116.52 9.79Q117.78 10.33 118.32 11.29Q118.86 12.25 118.97 13.57Q119.07 14.88 119.07 16.45L119.07 16.45L119.07 17.23Q119.07 20.38 117.72 21.69Q116.38 23 112.95 23Z"/></g>
        
      </svg>
    